<?xml version="1.0" encoding="UTF-8"?>
<svg width="64" height="64" viewBox="0 0 64 64" fill="none" xmlns="http://www.w3.org/2000/svg">
  <rect width="64" height="64" fill="#0F1C22"/>
  <g stroke-linecap="round">
    <line x1="32" y1="5.12" x2="55.2781" y2="18.56" stroke="#FFFFFF" stroke-opacity="0.5" stroke-width="1.792"/>
    <line x1="55.2781" y1="18.56" x2="55.2781" y2="45.44" stroke="#FFFFFF" stroke-opacity="0.5" stroke-width="1.792"/>
    <line x1="55.2781" y1="45.44" x2="32" y2="58.88" stroke="#FFFFFF" stroke-opacity="0.5" stroke-width="1.792"/>
    <line x1="32" y1="58.88" x2="8.7219" y2="45.44" stroke="#FFFFFF" stroke-opacity="0.5" stroke-width="1.792"/>
    <line x1="8.7219" y1="45.44" x2="8.7219" y2="18.56" stroke="#FFFFFF" stroke-opacity="0.5" stroke-width="1.792"/>
    <line x1="8.7219" y1="18.56" x2="32" y2="5.12" stroke="#FFFFFF" stroke-opacity="0.5" stroke-width="1.792"/>
    <line x1="32" y1="5.12" x2="32" y2="32" stroke="#2DD4BF" stroke-opacity="0.9" stroke-width="1.792"/>
    <line x1="55.2781" y1="45.44" x2="32" y2="32" stroke="#2DD4BF" stroke-opacity="0.9" stroke-width="1.792"/>
    <line x1="8.7219" y1="45.44" x2="32" y2="32" stroke="#2DD4BF" stroke-opacity="0.9" stroke-width="1.792"/>
    <line x1="55.2781" y1="18.56" x2="32" y2="58.88" stroke="#2DD4BF" stroke-opacity="0.9" stroke-width="1.792"/>
  </g>
  <circle cx="32" cy="5.12" r="2.88" fill="#2DD4BF"/>
  <circle cx="55.2781" cy="18.56" r="2.88" fill="#FFFFFF" fill-opacity="0.9"/>
  <circle cx="55.2781" cy="45.44" r="2.88" fill="#2DD4BF"/>
  <circle cx="32" cy="58.88" r="2.88" fill="#FFFFFF" fill-opacity="0.9"/>
  <circle cx="8.7219" cy="45.44" r="2.88" fill="#2DD4BF"/>
  <circle cx="8.7219" cy="18.56" r="2.88" fill="#FFFFFF" fill-opacity="0.9"/>
  <circle cx="32" cy="32" r="4.896" fill="#2DD4BF"/>
</svg>
